<?xml version='1.0' encoding='utf-8'?>
<svg xmlns="http://www.w3.org/2000/svg" version="1.1" id="Layer_1" x="0px" y="0px" viewBox="0 0 1856.82 1634.388" enable-background="new 0 0 1856.82 1634.388"> <g id="Red_Heart"> <g> <g enable-background="new "> <g> <path fill="none" stroke="#000000" stroke-width="2.8907" stroke-linecap="round" stroke-linejoin="round" d="M785.369,1617.166 l102.04-109.077l-3.643,10.995l7.176,5.826l-7.925,23.681l21.906-12.382c27.002,21.726,26.724,21.499,26.724,21.499"/> <path fill="none" stroke="#000000" stroke-width="2.8907" stroke-linecap="round" stroke-linejoin="round" d="M785.351,1617.194 c4.245-6.367,120.128-171.594,120.83-172.594l-51.857,50.488l-17.32-13.658c0,0-7.009,1.248-14.286-1.239 c-7.268-2.478-14.777-8.738-15.747-23.607l-24.671-20.038l-22.747,10.292l7.305-22.183l-6.103-6.279l4.559-10.921 c-70.816,70.841-103.039,102.854-103.039,102.854"/> <path fill="none" stroke="#000000" stroke-width="2.8907" stroke-linecap="round" stroke-linejoin="round" d="M662.256,1510.327 c0,0,30.987-42.392,122.827-166.842l-53.151,50.285l-18.429-17.024c-1-0.769-27.464,5.129-28.804-24.56 c-21.095-18.31-24.915-21.756-44.561-39.096l-104.241,115.485l-18.17-16.515l93.533-102.438 c-19.422-17.656-39.562-36.582-57.507-53.595l11.614-12.197c-4.574-4.361-0.133-0.11-18.984-18.226l-108.189,111.786 l-17.726-17.292l109.031-110.973c-6.489-6.359-20.578-20.353-29.156-29.063l-110.603,109.41 c-23.75-24.136-48.129-49.376-71.895-75.538l12.437-11.355c17.74,19.362,32.888,35.522,54.104,57.368l37.08-36.035 c-19.003-19.569-31.181-32.477-49.036-51.857l12.243-11.235c19.067,20.715,29.301,31.462,48.704,51.505l50.479-49.073 c-28.583-29.54-43.483-45.451-73.495-79.052l-116.521,103.076c-28.59-32.466-53.514-62.542-68.27-81.419l13.214-10.458 c16.761,21.351,45.376,55.392,51.182,61.844l37.21-32.133c-15.643-17.932-32.33-38.437-47.224-56.878l13.01-10.347 c14.068,17.461,31.111,38.359,46.789,56.36l42.453-36.655c-0.904-1.005-22.971-26.355-50.359-61.002l13.242-10.421 c-10.148-13.008-27.904-35.994-37.404-49.628c-20.491,5.279-3.785,1.02-24.301,6.195c7.367-10.713,6.555-9.552,14.166-20.445 l-5.086-7.407l6.686-9.395c-39.876,23.557-88.168,51.535-129.318,74.863C276.054,916.527,320.7,883.765,336.551,871.632"/> <path fill="none" stroke="#000000" stroke-width="2.8907" stroke-linecap="round" stroke-linejoin="round" d="M336.597,871.604 c-0.018,0-0.026,0.028-0.046,0.028c-2.062,1.051-31.933,16.439-64.507,32.577c-6.914-10.425-8.942-13.409-11.716-17.847 c-14.054-1.986-25.417-13.884-19.095-32.411c-11.489-20.12-6.508-11.273-14.897-26.696c-9.671,0.432-15.171,0.699-24.828,0.915 c9.296-10.31,6.075-6.772,15.655-17.209c-1.73-4.664-2.206-5.849-2.876-7.878l8.748-7.906 c-50.285,19.184-111.406,41.14-136.845,49.804"/> <path fill="none" stroke="#000000" stroke-width="2.8907" stroke-linecap="round" stroke-linejoin="round" d="M86.153,845.001 c0,0,68.782-38.484,154.285-82.288c16.663-8.47,27.981-14.222,28.786-14.638"/> <path fill="none" stroke="#000000" stroke-width="2.8907" stroke-linecap="round" stroke-linejoin="round" d="M269.27,748.056 c0,0-0.009,0-0.028,0.018c-0.009,0-0.009,0-0.018,0c-3.817,1.227-30.675,10.08-69.713,21.989 c-7.276-20.042-5.428-14.898-7.952-22.47c-0.452-1-26.932-8.512-12.058-33.677c-7.228-22.826-10.869-37.587-14.314-53.752"/> </g> <g> <path fill="none" stroke="#000000" stroke-width="2.8907" stroke-linecap="round" stroke-linejoin="round" d="M892.757,385.596 c-12.054-22.425-22.914-39.88-28.274-47.324c2.546-9.925,1.214-19.205-7.742-24.436c-6.103-3.37-12.823-3.122-13.099-3.43 c-2.86-3.981-7.525-10.104-14.095-18.076c-21.848,15.976-39.756,29.781-58.109,44.212 c43.337-44.329,91.167-96.853,139.036-153.523c-36.726,29.718-78.615,65.964-110.336,95.039 c3.322-6.349,2.167-4.12,5.365-10.363l-5.235-5.97c2.694-6.686,5.767-14.975,8.101-21.638 c-11.762,5.437-19.146,9.377-22.088,10.92c-13.909-10.673-18.989-13.869-23.228-16.651 c-2.277-20.529-18.862-23.168-29.88-18.097c-10.688-5.319-6.043-3.116-17.868-8.456c-12.426,21.08-23.281,40.003-35.543,62.891 c24.137-63.47,49.079-139.384,66.329-199.897c-20.985,42.316-44.607,93.659-62.555,135.66c0.143-6.98,0.104-4.546,0.181-11.395 c-6.567-2.278-6.863-2.404-7.863-2.687c-0.102-7.81-0.411-16.908-0.833-24.708c-4.91,6.404-9.869,13.168-14.701,20.123 c-17.009-4.519-34.625-8.414-56.721-10.984l2.008-16.729c-26.846-3.139-53.718-3.926-76.216-2.94l-2.149-56.047 c30.519-1.31,65.696,0.887,76.304,2.279l1.686-16.533c-11.535-1.504-47.695-3.68-78.627-2.353l-1.884-49.127 c28.009-1.211,62.602-0.069,90.453,3.141l1.859-16.747c-35.237-4.045-77.711-5.054-121.778-1.442l12.728,155.047 c-37.7,3.113-74.002,11.14-97.892,19.526l-22.115-66.834c12.825-4.793,47.034-13.738,72.358-17.73l-2.712-16.396 c-28.294,4.47-63.76,14.214-74.867,18.349l-16.242-49.085c6.941-2.531,43.43-14.247,89.54-21.332l-2.548-16.656 c-44.052,6.781-81.831,17.105-120.8,32.384l57.134,144.698c-13.334,5.223-28.265,12.287-34.167,15.482l-71.6-138.113 c-18.049,9.718-13.88,7.332-26.873,15.03l79.804,133.541c-6.716,3.972-15.89,9.934-20.019,12.883l-9.612-13.839 c-23.231,16.524-30.717,23.708-43.994,35.971c-0.903,0.841-11.182,11.186-12.102,12.194l-100.77-95.334 c-15.8,17.333-12.367,13.439-20.491,23.153l119.367,99.767c-16.489,20.158-24.528,33.646-30.88,43.784 c-6.919,1.227-11.447,3.858-14.366,6.943c-8.736,9.291-1.585,22.429-1.802,23.429c-8.388,16.132-5.811,10.952-10.29,20.502 c20.249,11.055,44.054,23.517,64.682,33.857c-69.852-23.918-138.104-44.779-197.886-61.064 c54.608,26.221,81.133,38.163,132.574,60.31c-7.172-0.336-4.672-0.227-11.704-0.51l-3.379,7.362 c-8.474,0.447-16.666,1.046-23.06,1.592c5.845,5.148,12.766,11.028,18.802,15.965c-0.307,1-3.682,14.733-6.407,28.654 c-11.477,6.388-14.514,15.687-12.404,23.264c1.825,7.038,6.655,11.852,6.655,11.852c-0.557,5.086-0.206,0.907-1.526,20.075 c22.526,3.973,48.822,8.107,71.447,11.23c-66.214,0.056-145.993,3.053-210.501,7.721c62.275,6.151,92.381,8.453,148.889,11.922 c-6.511,2.245-4.204,1.433-10.79,3.792l0.222,8.453c-11.782,4.423-19.135,7.516-23.072,9.156 c7.509,2.433,16.307,5.117,23.903,7.286c1.151,18.449,4.56,42.779,7.747,58.12"/> </g> </g> <g enable-background="new "> <g> <path fill="none" stroke="#000000" stroke-width="2.8907" stroke-linecap="round" stroke-linejoin="round" d="M1695.034,655.484 c5.27-25.621,6.941-44.2,8.046-54.818c8.188-6.011,13.127-14.329,9.441-23.948c-2.517-6.518-7.748-10.637-7.841-11.049 c0.734-18.191,0.596-12.408,0.623-23.105c-22.81-1.431-49.652-2.652-72.923-3.294c67.454-7.302,137.457-16.815,205.103-28.725 c-50.583-0.484-94.865-0.237-145.671,1.845c6.646-2.745,4.334-1.78,10.828-4.519c-0.017-5.912,0.029-3.997-0.151-8.036 c6.441-3.463,13.868-7.635,20.181-11.333c-8.328-2.362-15.595-4.221-23.924-6.136c-2.989-14.285-5.791-25.086-6.729-28.265 c12.523-18.576-0.889-30.862-10.577-33.982c-3.737-9.663-2.049-5.575-7.661-18.52c-22.621,6.954-43.079,13.446-68.673,22.407 c60.968-30.904,131.028-70.327,183.869-102.762c-58.102,22.855-85.904,34.617-137.818,57.668 c4.785-4.983,3.084-3.187,7.865-8.297l-4.054-7.275c7.936-8.823,12.528-14.415,16.142-18.79 c-7.864,1.399-16.852,3.203-24.425,4.896c-11.347-18.641-25.708-35.723-34.321-45.682l12.585-11.203 c-19.86-23.002-41.618-40.071-55.517-50.744l33.451-45.021c21.759,16.704,36.234,28.795,57.928,51.888l12.174-11.313 c-22.617-24.08-37.801-36.73-60.19-53.915l29.321-39.463c30.317,23.269,44.247,35.827,70.413,63.685l12.465-11.338 c-30.729-32.865-60.185-58.709-97.942-83.357l-85.341,130.071c-16.221-10.544-22.442-13.648-32.853-19.353 c-22.389-11.941-53.143-23.35-56.686-24.422l23.15-66.483c5.761,1.675,40.901,14.922,68.337,29.708l7.776-14.687 c-26.89-14.479-63.331-28.576-70.648-30.716l17.002-48.827c1,0.293,39.987,13.212,84.053,37.233l8.082-14.785 c-34.413-18.745-71.754-34.711-114.594-47.294l-44.089,149.191c-18.167-5.316-25.666-6.864-37.379-9.46l32.203-152.2 c-6.464-1.416-23.803-4.668-28.285-5.373l-25.71,153.43c-18.354-2.846-11.753-1.92-24.575-3.502l2.033-16.726 c-25.03-3.097-50.394-4.412-74.946-3.035l-6.7-138.558c-16.701,0.916-11.611,0.574-30.439,2.322l16.463,154.696 c-18.557,1.9-35.084,5.56-52.505,10.092c-9.888-6.96-20.851-7.284-28.243,3.142c-2.057,3.076-3.882,7.671-3.882,7.671 c-8.069,2.707-3.36,1.016-17.802,6.485c-1.939,0.824-3.232,1.374-3.232,1.374c7.606,21.79,17.014,46.962,25.569,68.398 c-31.425-57.627-72.317-125.158-106.949-177.386c17.677,43.246,40.798,94.323,59.719,132.874c-5.16-5.04-3.345-3.282-8.44-8.171 l-7.112,3.374c-8.667-6.84-13.969-10.64-18.491-13.9c1.383,9.069,2.787,16.601,4.315,24.227 c-5.814,4.343-12.82,9.368-22.511,17.701c-21.311-3.678-27.548,12.774-26.109,23.718c-8.428,8.982-5.527,5.798-13.504,14.847 c16.565,18.316,31.365,34.343,49.281,52.827c-52.167-40.795-116.842-87.564-170.539-123.616 c45.263,43.23,67.349,63.397,109.945,101.145c-6.632-2.26-4.316-1.48-10.835-3.646c-4.653,6.105-3.742,4.877-5.097,6.773 c-7.482-2.327-16.237-4.886-23.789-6.959c1.853,2.748,6.671,9.978,14.292,20.486c-12.894,19.137-20.213,32.121-29.988,50.7"/> </g> <g> <path fill="none" stroke="#000000" stroke-width="2.8907" stroke-linecap="round" stroke-linejoin="round" d="M1692.67,658.259 c-4.863,22.693-9.383,37.773-15.553,57.673c6.981,5.596,12.223,9.837,19.344,15.794c-14.908,0.266-9.642,0.205-24.809,0.296 c-0.689,2.031-1.424,3.924-3.015,8.23l-11.503-0.139c61.746,27.664,125.661,58.261,135.431,63.073"/> <path fill="none" stroke="#000000" stroke-width="2.8907" stroke-linecap="round" stroke-linejoin="round" d="M1792.601,803.196 c-1.004,0-87.532-25.785-200.686-64.007c22.431,12.022,40.998,22.093,63.406,34.658c-5.554,13.704-3.915,9.812-8.119,19.474 c4.41,8.873,6.11,27.563-16.293,33.705c-6.787,13.722-3.727,7.679-13.972,27.315c5.403,7.348,8.852,12.213,14.499,20.168 c-12.718-1.796-8.984-1.23-23.025-3.31c-1.67,2.396-2.886,4.012-5.003,6.87l-11.475-2.737 c37.183,26.05,81.147,57.563,118.379,84.896c-90.36-45.65-123.178-63.307-183.894-95.493"/> <path fill="none" stroke="#000000" stroke-width="2.8907" stroke-linecap="round" stroke-linejoin="round" d="M1526.41,864.725 c0.388,0,57.543,44.599,57.849,44.838c-13.78,19.743-9.932,14.353-14.037,20.066c-0.548,1,8.723,26.506-20.491,30.848 c-4.039,5.949-20.021,28.583-34.112,47.233l123.678,94.383c-9.238,12.069-6.061,7.997-15.683,20.232l-109.049-85.747 c-19.007,24.197-31.912,39.513-49.675,60.382l-12.789-10.985c-3.888,4.596-5.961,6.922-17.162,19.733l116.669,102.909 c-7.096,8.037-2.679,3.049-16.802,18.818l-115.503-104.213c-4.964,5.528-15.55,17.134-27.806,30.228l113.562,106.321 c-27.879,29.723-56.126,58.42-72.838,74.734l-11.836-11.984c12.09-11.835,31.617-31.489,55.26-56.157l-37.385-35.721 c-26.672,27.87-47.828,48.822-50.026,50.969l-11.697-11.799c16.347-16.154,33.744-33.966,49.702-50.645l-50.904-48.62 c-28.545,29.786-48.095,49.28-76.5,76.768l107.986,111.98c-28.056,27.165-48.9,46.169-75.862,70.832l-11.309-12.493 c21.764-19.766,36.482-33.351,57.608-53.383l-33.844-35.656c-23.521,22.342-48.556,45.208-53.651,49.776l-11.161-12.308 c4.269-3.826,28.119-25.546,53.373-49.527l-38.606-40.677c-19.503,18.455-35.946,33.766-58.542,54.159l-11.291-12.511 c-18.308,16.603-37.091,33.004-47.372,42.009l8.378,23.718l-21.897-12.012l-6.972,6.001l-10.144-5.557 c12.063,16.246,61.52,82.808,88.863,120.034"/> <path fill="none" stroke="#000000" stroke-width="2.8907" stroke-linecap="round" stroke-linejoin="round" d=" M1234.419,1491.732c0,0-0.009-0.009-0.019-0.018c0-0.009-0.009-0.009-0.009-0.009c-44.376-45.104-22.241-22.12-147.71-150.17 l40.169,60.198l-16.58,14.453c-0.039,7.412-4.951,28.004-30.006,24.736c-18.096,15.153-6.205,5.238-24.375,20.325l5.715,24.319 l-20.343-11.457l-7.361,4.734l-9.792-6.574"/> <path fill="none" stroke="#000000" stroke-width="2.8907" stroke-linecap="round" stroke-linejoin="round" d=" M1024.088,1472.248c0.652,0.652,76.977,115.474,80.735,121.163"/> <path fill="none" stroke="#000000" stroke-width="2.8907" stroke-linecap="round" stroke-linejoin="round" d=" M1104.851,1593.439c0,0-0.009-0.009-0.018-0.018c0-0.009-0.009-0.009-0.009-0.009c-73.749-80.803-19.568-21.035-139.573-153.083 l38.893,61.991l-20.343,14.73c-1,0.892-0.374,27.967-29.803,23.459c0,0-10.985,8.461-22.35,17.199"/> </g> </g> </g> </g> </svg>