<svg id="Layer_1" height="512" viewBox="0 0 512 512" width="512" xmlns="http://www.w3.org/2000/svg" data-name="Layer 1"><path d="m384.73 325.225a67.679 67.679 0 0 0 -13.89-1.225h-229.68a67.967 67.967 0 0 0 -21.94 3.4 69.151 69.151 0 0 0 -47.22 65.78v102.82h368v-102.82a69.2 69.2 0 0 0 -55.27-67.955z" fill="#80aaff"/><path d="m149.22 327.4a67.967 67.967 0 0 1 21.94-3.4h-30a67.967 67.967 0 0 0 -21.94 3.4 69.151 69.151 0 0 0 -47.22 65.78v102.82h30v-102.82a69.151 69.151 0 0 1 47.22-65.78z" fill="#6e93ce"/><path d="m193.96 324c.11 1 1.95 30.365 7.7 67.765 4.66 30.34 11.9 72.035 22.86 104.235h62.96c10.96-32.2 18.2-73.895 22.86-104.235 5.75-37.4 7.59-66.765 7.7-67.765z" fill="#d4e1f4"/><path d="m360.07 386.29.33 1.39-33.66 18.88-.11.13-18.29-15.13c5.75-37.4 7.59-66.07 7.7-67.97h.16a102.657 102.657 0 0 1 43.87 62.7z" fill="#97bfff"/><path d="m326.63 406.69 28.06 23.2c-3.77 21.39-11.31 47.59-22.15 66.11h-47.06c10.96-32.2 18.2-74.1 22.86-104.44z" fill="#77a0e0"/><path d="m213.16 287.48v41.15a42.9 42.9 0 1 0 85.79 0v-41.23z" fill="#eabbb5"/><path d="m226.52 496h-47.06c-10.83-18.52-18.38-44.72-22.15-66.11l28.06-23.2 18.29-15.13c4.66 30.34 11.9 72.24 22.86 104.44z" fill="#77a0e0"/><path d="m203.66 391.56-18.29 15.13-.11-.13-33.66-18.88.33-1.39a102.657 102.657 0 0 1 43.87-62.7h.16c.11 1.9 1.95 30.57 7.7 67.97z" fill="#97bfff"/><path d="m183.2 195.01v23.16h-2.3a14.7 14.7 0 0 1 -17.52-23.38 15.173 15.173 0 0 1 1.71-1.38 12.436 12.436 0 0 1 15.81 1.6z" fill="#eabbb5"/><path d="m352.95 203.44a14.7 14.7 0 0 1 -22.01 14.73h-2.15l-.01-23.16h2.16a12.451 12.451 0 0 1 15.82-1.6 15.1 15.1 0 0 1 3.24 3.05v.01a14.65 14.65 0 0 1 2.95 6.97z" fill="#eabbb5"/><path d="m274.41 16h-36.82a36.625 36.625 0 0 0 -36.59 36.82v17.18h110v-17.18a36.625 36.625 0 0 0 -36.59-36.82z" fill="#3c424c"/><path d="m330.75 152.93a40.881 40.881 0 0 0 -40.88-40.84h-57.57a32.435 32.435 0 0 1 -7.81-.95v5.87a33.511 33.511 0 0 1 -33.52 33.51 9.777 9.777 0 0 0 -9.77 9.77v65.87a74.8 74.8 0 1 0 149.6 0z" fill="#ffc9c0"/><path d="m243.16 287.48a75.935 75.935 0 0 1 -10.15-8.43 74.615 74.615 0 0 1 -22.01-52.89v-82.468a33.321 33.321 0 0 1 -20.252 6.828 9.759 9.759 0 0 0 -9.748 9.77v65.87a74.615 74.615 0 0 0 22.01 52.89 75.935 75.935 0 0 0 10.15 8.43 74.383 74.383 0 0 0 42.84 13.48 75.184 75.184 0 0 0 15-1.51 74.3 74.3 0 0 1 -27.84-11.97z" fill="#d3a6a1"/><path d="m224.49 115.14v5.87a33.511 33.511 0 0 1 -33.52 33.51 9.777 9.777 0 0 0 -9.77 9.77v30.72h-.3a12.436 12.436 0 0 0 -15.81-1.6 15.173 15.173 0 0 0 -1.71 1.38l-1.38-1.38v-49.24a94 94 0 0 1 188 0v52.29a15.1 15.1 0 0 0 -3.24-3.05 12.451 12.451 0 0 0 -15.82 1.6h-.16l-.03-38.08a40.881 40.881 0 0 0 -40.88-40.84h-57.57a32.435 32.435 0 0 1 -7.81-.95z" fill="#4a5160"/><g fill="#aa8785"><path d="m303.31 200.62a6 6 0 0 1 -6-6 6.9 6.9 0 1 0 -13.805 0 6 6 0 0 1 -12 0 18.9 18.9 0 1 1 37.805 0 6 6 0 0 1 -6 6z"/><path d="m234.5 200.62a6 6 0 0 1 -6-6 6.9 6.9 0 1 0 -13.805 0 6 6 0 0 1 -12 0 18.9 18.9 0 1 1 37.805 0 6 6 0 0 1 -6 6z"/><path d="m256 257.866a36.183 36.183 0 0 1 -25.753-10.666 6 6 0 0 1 8.485-8.485 24.42 24.42 0 0 0 34.536 0 6 6 0 0 1 8.485 8.485 36.183 36.183 0 0 1 -25.753 10.666z"/></g><path d="m220.866 391.213a6 6 0 0 1 -5.854-4.71l-.512-2.303a6 6 0 0 1 11.719-2.582l.508 2.307a6.006 6.006 0 0 1 -5.865 7.292z" fill="#f4f8fc"/><path d="m235.371 457.027a6 6 0 0 1 -5.854-4.71l-10.8-49.017a6 6 0 1 1 11.719-2.582l10.8 49.017a6 6 0 0 1 -4.568 7.151 6.08 6.08 0 0 1 -1.297.141z" fill="#f4f8fc"/><path d="m90 398.045v25.955h12v-25.955a17.5 17.5 0 1 1 35 0v25.955h12v-25.955a29.425 29.425 0 0 0 -24-29.282v-42.988c-1.949.454-3.876.99-5.78 1.63-2.124.712-4.195 1.535-6.22 2.439v39.2a29.735 29.735 0 0 0 -23 29.001z" fill="#6d7486"/><path d="m391 413v-86.184c-2-.62-4.109-1.156-6.221-1.591a53.089 53.089 0 0 0 -5.779-.863v88.638z" fill="#6d7486"/><circle cx="385.34" cy="425.65" fill="#4a5160" r="15.5"/><path d="m143.741 422.785a11.5 11.5 0 1 1 -11.506 11.506 11.5 11.5 0 0 1 11.506-11.506z" fill="#978cac"/><path d="m95.975 422.018a11.786 11.786 0 1 1 -.354-.012 3.489 3.489 0 0 1 .354.012z" fill="#978cac"/></svg>